<svg width="64" height="64" viewBox="0 0 64 64" fill="none" xmlns="http://www.w3.org/2000/svg">
  <path d="M18 36.5C18 28.4919 24.4919 22 32.5 22C40.5081 22 47 28.4919 47 36.5C47 44.5081 40.5081 51 32.5 51H31.5C23.4919 51 17 44.5081 17 36.5" stroke="#F4EDE3" stroke-width="2.6" stroke-linecap="round"/>
  <path d="M20.5 37.5C20.5 31.1487 25.6487 26 32 26C38.3513 26 43.5 31.1487 43.5 37.5C43.5 39.0431 43.1961 40.5152 42.644 41.86" stroke="#6F8E3D" stroke-width="2.8" stroke-linecap="round"/>
  <path d="M24 43.5H40.5" stroke="#F4EDE3" stroke-width="2.4" stroke-linecap="round"/>
  <path d="M26.5 17C24.6656 19.0558 24.6656 22.1015 26.5 24.1573" stroke="#EAA14E" stroke-width="2.4" stroke-linecap="round"/>
  <path d="M32 13C29.3491 15.8277 29.3491 19.9723 32 22.8" stroke="#D96C3B" stroke-width="2.4" stroke-linecap="round"/>
  <path d="M37.5 17C35.6656 19.0558 35.6656 22.1015 37.5 24.1573" stroke="#9CCB65" stroke-width="2.4" stroke-linecap="round"/>
</svg>
